# xmcd CD database file
# Copyright (C) 2012 Ti Kan
# 
# Track frame offsets:
#     150
#     13505
#     22052
#     33155
#     44125
#     52455
#     71190
#     86175
#     103652
#     122030
#     131775
#     144825
#     158100
#     182327
#     195670
#     209477
#     220655
#     236270
#     248100
#     260925
#     278852
#     294230
# 
# Disc length: 4108 seconds
# 
# Revision: 1
# Processed by: cddbd v1.4b41PL1 Copyright (c) Steve Scherf et al.
# Submitted via: DiscPlay 4.0.4
# 
DISCID=54100a16
DTITLE=Zelenaci - Ctvrt stoleti se Zelenaci
DYEAR=1900
DGENRE=
TTITLE0=Ztracenej zivot
TTITLE1=A tak ja zas v tom litam
TTITLE2=Ja jsem vandrak a karbanik
TTITLE3=Rovnou, tady rovnou
TTITLE4=Hardy
TTITLE5=Oranzovy expres
TTITLE6=Divnej smich
TTITLE7=Divka s vlasem medovym
TTITLE8=Cadillac
TTITLE9=Kocovnici
TTITLE10=Pivni dzip
TTITLE11=Abilene
TTITLE12=Dlouhy cerny zavoj
TTITLE13=Mistre Buriane, dik za ten svet
TTITLE14=Mist cas
TTITLE15=Ja zivot jsem jak trampskej bagl lehce rozbalil
TTITLE16=Mimozemstan
TTITLE17=Porad cestuju sam
TTITLE18=Neklaunova zpoved
TTITLE19=Battledress
TTITLE20=Sedm spanelskych andelu
TTITLE21=Zeleni muzici
EXTD=
EXTT0=
EXTT1=
EXTT2=
EXTT3=
EXTT4=
EXTT5=
EXTT6=
EXTT7=
EXTT8=
EXTT9=
EXTT10=
EXTT11=
EXTT12=
EXTT13=
EXTT14=
EXTT15=
EXTT16=
EXTT17=
EXTT18=
EXTT19=
EXTT20=
EXTT21=
PLAYORDER=
